<svg xmlns="http://www.w3.org/2000/svg" width="850" height="600" style="font-family:Lato,&quot;Helvetica Neue&quot;,Helvetica,Arial,&quot;Liberation Sans&quot;,sans-serif;font-size:18px;background-color:#fff;text-rendering:geometricPrecision;-webkit-font-smoothing:antialiased" version="1.1" viewBox="0 0 850 600"><defs><style>@import url(/fonts.css);</style></defs><defs><pattern id="noDataPattern" width="4" height="4" patternTransform="rotate(-45 2 2)" patternUnits="userSpaceOnUse"><path stroke="#ccc" stroke-width=".7" d="M-1 2h6"/></pattern></defs><path fill="#fff" d="M0 0h850v600H0z" class="background-fill"/><g class="HeaderView"><g transform="translate(769 16)"><svg xmlns="http://www.w3.org/2000/svg" width="65" height="36" fill="none" className="owidLogo" viewBox="0 0 65 36"><path fill="#002147" d="M0 0h64.8v36H0z"/><path fill="#CE261E" d="M0 33.3h64.8V36H0z"/><path fill="#fff" d="M13.8 10.57c0 .64-.11 1.23-.32 1.77a4.2 4.2 0 0 1-.9 1.4 4.08 4.08 0 0 1-1.38.94c-.54.22-1.14.33-1.8.33-.65 0-1.25-.11-1.8-.33a4.15 4.15 0 0 1-1.39-.93 4.2 4.2 0 0 1-.9-1.4A4.83 4.83 0 0 1 5 10.56c0-.63.1-1.22.32-1.76a4.18 4.18 0 0 1 .9-1.4 4.08 4.08 0 0 1 1.38-.93 4.68 4.68 0 0 1 1.8-.34c.66 0 1.26.11 1.8.34a4.08 4.08 0 0 1 2.28 2.33c.21.54.32 1.13.32 1.76Zm-1.66 0c0-.47-.06-.9-.2-1.27a2.67 2.67 0 0 0-.53-.97 2.33 2.33 0 0 0-.87-.6A2.94 2.94 0 0 0 9.4 7.5c-.42 0-.8.07-1.14.21-.34.14-.63.35-.87.61a2.74 2.74 0 0 0-.55.97 3.96 3.96 0 0 0-.19 1.27c0 .48.06.9.2 1.29a2.42 2.42 0 0 0 1.42 1.56c.33.14.71.2 1.13.2.43 0 .8-.06 1.14-.2a2.37 2.37 0 0 0 1.4-1.56 4.01 4.01 0 0 0 .2-1.29Zm3.96-1.81v3.9c0 .39.09.68.26.89.18.2.44.3.79.3.25 0 .5-.06.72-.17a2.58 2.58 0 0 0 .63-.47V8.76H20v6.15h-.91c-.2 0-.32-.09-.38-.27l-.1-.49a4.65 4.65 0 0 1-.4.35 2.58 2.58 0 0 1-.43.27 2.35 2.35 0 0 1-.5.17 2.35 2.35 0 0 1-.57.07c-.34 0-.64-.06-.9-.17a1.82 1.82 0 0 1-.64-.49 2.16 2.16 0 0 1-.4-.73 3.23 3.23 0 0 1-.14-.95V8.76h1.48Zm5.23 6.15V8.76h.87c.15 0 .26.02.32.08s.1.15.12.29l.09.74c.22-.38.47-.68.77-.9.3-.22.63-.33 1-.33.3 0 .55.07.75.21l-.19 1.11c-.01.07-.04.13-.08.16a.28.28 0 0 1-.16.04 1.01 1.01 0 0 1-.25-.04 1.65 1.65 0 0 0-.41-.04c-.3 0-.57.08-.8.25-.21.17-.4.42-.55.75v3.83h-1.48Zm6.02-8.67h1.35a.57.57 0 0 1 .35.1c.1.06.16.15.2.26l1.47 5.2a10.12 10.12 0 0 1 .19.9 5.97 5.97 0 0 1 .22-.9l1.7-5.2a.57.57 0 0 1 .2-.25.54.54 0 0 1 .34-.11h.48a.57.57 0 0 1 .34.1.5.5 0 0 1 .2.26l1.69 5.2c.08.25.16.53.22.85a31.71 31.71 0 0 1 .19-.86l1.47-5.19c.03-.1.1-.18.19-.25a.56.56 0 0 1 .34-.11h1.27l-2.7 8.67h-1.45L33.7 9l-.08-.25a9.5 9.5 0 0 1-.07-.28 4.04 4.04 0 0 1-.15.53L31.5 14.9h-1.46l-2.7-8.67Zm15.42 2.42c.46 0 .88.07 1.25.22s.7.36.96.63.47.6.61 1 .22.83.22 1.31c0 .5-.08.93-.22 1.32a2.85 2.85 0 0 1-.61 1 2.65 2.65 0 0 1-.96.64 3.35 3.35 0 0 1-1.25.22 3.4 3.4 0 0 1-1.25-.22 2.71 2.71 0 0 1-.97-.63 2.92 2.92 0 0 1-.62-1 3.8 3.8 0 0 1-.21-1.33c0-.48.07-.92.21-1.31a2.75 2.75 0 0 1 1.58-1.63 3.4 3.4 0 0 1 1.26-.22Zm0 5.2c.51 0 .9-.17 1.13-.51.25-.35.38-.85.38-1.52s-.13-1.17-.38-1.51c-.24-.35-.62-.53-1.13-.53-.52 0-.9.18-1.15.53-.25.35-.37.85-.37 1.51s.12 1.17.37 1.52c.25.34.63.51 1.15.51Zm3.95 1.05V8.76h.87c.15 0 .26.02.32.08s.1.15.12.29l.1.74c.21-.38.47-.68.76-.9.3-.22.63-.33 1-.33.3 0 .56.07.76.21l-.2 1.11c0 .07-.03.13-.07.16a.28.28 0 0 1-.17.04 1.01 1.01 0 0 1-.24-.04 1.65 1.65 0 0 0-.42-.04c-.3 0-.57.08-.79.25-.22.17-.4.42-.56.75v3.83h-1.48ZM52.96 6v8.91h-1.48V6h1.48Zm5.77 8.91c-.19 0-.32-.09-.38-.27l-.12-.6a3.68 3.68 0 0 1-.4.4 2.5 2.5 0 0 1-.98.5 2.37 2.37 0 0 1-.6.06c-.33 0-.64-.07-.92-.2a2.1 2.1 0 0 1-.73-.61 3.03 3.03 0 0 1-.46-1 5.07 5.07 0 0 1-.17-1.34c0-.45.07-.88.19-1.27s.3-.73.53-1.02c.24-.29.51-.51.84-.67a2.38 2.38 0 0 1 1.09-.25 2.1 2.1 0 0 1 1.54.6V6h1.48v8.91h-.9Zm-1.97-1.08c.3 0 .57-.07.78-.2.22-.12.42-.3.62-.54v-2.76a1.45 1.45 0 0 0-.56-.43 1.6 1.6 0 0 0-.63-.13c-.23 0-.43.04-.61.13a1.21 1.21 0 0 0-.47.38c-.12.17-.22.39-.28.65a4.3 4.3 0 0 0-.02 1.84c.06.25.14.45.25.61.1.16.24.27.4.34.15.07.33.1.52.1Zm-40.43 6.93v6.15h-1.48v-6.15h1.48Zm.22-1.8a.84.84 0 0 1-.07.36.96.96 0 0 1-.21.3 1 1 0 0 1-.3.2.96.96 0 0 1-.38.07.95.95 0 0 1-.36-.07 1.02 1.02 0 0 1-.5-.5.96.96 0 0 1 0-.73 1 1 0 0 1 .2-.3.93.93 0 0 1 .3-.2.9.9 0 0 1 .73 0 .91.91 0 0 1 .3.2.94.94 0 0 1 .3.67Zm1.22 7.95v-6.15h.9c.2 0 .32.09.38.27l.1.48a2.93 2.93 0 0 1 .84-.61 2.3 2.3 0 0 1 1.07-.24c.34 0 .63.06.9.18.25.1.47.27.64.48.18.2.3.45.4.73.09.29.13.6.13.95v3.91h-1.48V23c0-.38-.08-.67-.26-.87-.17-.21-.43-.32-.78-.32-.26 0-.5.06-.72.18a2.58 2.58 0 0 0-.64.47v4.45h-1.48Zm16.45-4.34c0 .64-.1 1.22-.32 1.76-.21.53-.5.99-.9 1.37a4 4 0 0 1-1.38.9 4.87 4.87 0 0 1-1.8.31h-3.3v-8.67h3.3a4.79 4.79 0 0 1 1.8.32 4 4 0 0 1 1.39.9c.38.37.68.83.9 1.36.2.53.31 1.12.31 1.75Zm-1.65 0c0-.47-.06-.9-.2-1.27a2.68 2.68 0 0 0-.54-.96 2.33 2.33 0 0 0-.86-.6 2.94 2.94 0 0 0-1.14-.22h-1.69v6.1h1.69c.42 0 .8-.06 1.14-.2.34-.14.63-.34.86-.6a2.75 2.75 0 0 0 .55-.96 4.01 4.01 0 0 0 .19-1.29Zm7.41 4.34h-.67a.75.75 0 0 1-.33-.06c-.07-.04-.13-.13-.17-.25l-.14-.44c-.15.14-.3.26-.46.37a2.8 2.8 0 0 1-.46.26c-.16.08-.33.13-.51.17a3.07 3.07 0 0 1-1.32-.05 1.62 1.62 0 0 1-.57-.32 1.45 1.45 0 0 1-.37-.52 1.85 1.85 0 0 1-.13-.73c0-.23.06-.46.18-.68.12-.23.33-.44.61-.62.29-.18.67-.33 1.14-.45a8.01 8.01 0 0 1 1.75-.2v-.36c0-.42-.08-.72-.26-.92-.17-.2-.42-.3-.76-.3a1.84 1.84 0 0 0-1.01.28l-.33.19a.66.66 0 0 1-.33.08.43.43 0 0 1-.26-.08.61.61 0 0 1-.17-.2l-.27-.46c.7-.65 1.56-.98 2.56-.98.36 0 .68.06.96.18a1.99 1.99 0 0 1 1.16 1.25c.1.29.16.6.16.96v3.88ZM37.1 26c.15 0 .3-.01.42-.04a1.81 1.81 0 0 0 .69-.33c.1-.09.22-.19.32-.3v-1.04c-.43.02-.79.06-1.08.12a2.8 2.8 0 0 0-.7.2.92.92 0 0 0-.37.3.66.66 0 0 0-.11.36c0 .26.07.45.22.56.16.11.36.17.61.17ZM43.22 27c-.53 0-.94-.15-1.23-.45-.29-.3-.43-.72-.43-1.25v-3.44h-.63a.31.31 0 0 1-.2-.08c-.06-.05-.09-.13-.09-.23v-.6l.99-.15.31-1.68a.3.3 0 0 1 .11-.2.36.36 0 0 1 .22-.06h.77v1.94h1.62v1.06h-1.62v3.33c0 .2.05.35.14.45a.49.49 0 0 0 .39.17.73.73 0 0 0 .39-.1l.12-.07a.2.2 0 0 1 .11-.04.16.16 0 0 1 .11.04c.03.02.06.05.09.1l.44.71c-.21.18-.46.32-.74.41a2.77 2.77 0 0 1-.87.14Zm7.2-.1h-.66a.75.75 0 0 1-.33-.06c-.08-.04-.14-.13-.18-.25l-.13-.44c-.16.14-.31.26-.47.37a2.8 2.8 0 0 1-.46.26c-.16.08-.33.13-.5.17a3.07 3.07 0 0 1-1.33-.05 1.62 1.62 0 0 1-.57-.32 1.45 1.45 0 0 1-.36-.52 1.85 1.85 0 0 1-.14-.73c0-.23.06-.46.18-.68.13-.23.33-.44.62-.62.28-.18.66-.33 1.13-.45a8.01 8.01 0 0 1 1.76-.2v-.36c0-.42-.1-.72-.27-.92-.17-.2-.42-.3-.75-.3a1.84 1.84 0 0 0-1.02.28l-.33.19a.66.66 0 0 1-.33.08.43.43 0 0 1-.25-.08.61.61 0 0 1-.18-.2l-.27-.46c.7-.65 1.56-.98 2.56-.98.36 0 .68.06.96.18a1.99 1.99 0 0 1 1.17 1.25c.1.29.15.6.15.96v3.88ZM47.54 26c.16 0 .3-.01.42-.04a1.88 1.88 0 0 0 .69-.33l.33-.3v-1.04c-.44.02-.8.06-1.09.12a2.8 2.8 0 0 0-.7.2.92.92 0 0 0-.37.3.66.66 0 0 0-.11.36c0 .26.08.45.23.56.15.11.36.17.6.17Z"/></svg></g><a href="/grapher/elec-fossil-nuclear-renewables" rel="noopener" style="font-family:&quot;Playfair Display&quot;,Georgia,&quot;Times New Roman&quot;,&quot;Liberation Serif&quot;,serif" target="_blank"><text x="16" y="36.6" fill="#5b5b5b" font-size="21.25" font-weight="600"><tspan x="16" y="36.61">Electricity production from fossil fuels, nuclear and renewables, World</tspan></text></a><text x="16" y="59.7" fill="#5b5b5b" style="font-size:14.625px;line-height:1.2"><tspan x="16" y="59.7">Measured in <tspan>terawatt-hours</tspan>.</tspan></text></g><g style="pointer-events:none"><g class="StackedArea"><defs><clipPath id="boundsClip-2937"><path d="M94.84 79.05h818v876.7h-818z"/></clipPath></defs><path fill="none" d="M16 79.05h818V517.4H16z"/><g class="DualAxisView"><g class="HorizontalAxis"><path stroke="#999" stroke-width="1" d="M94.8 496.9v5M724.5 496.9v5M179.9 496.9v5M265 496.9v5M350.1 496.9v5M435.2 496.9v5M520.3 496.9v5M605.4 496.9v5"/><text x="94.84" y="515.4" fill="#5b5b5b" font-size="13.5" text-anchor="start">1985</text><text x="724.48" y="515.4" fill="#5b5b5b" font-size="13.5" text-anchor="end">2022</text><text x="179.9" y="515.4" fill="#5b5b5b" font-size="13.5" text-anchor="middle">1990</text><text x="265" y="515.4" fill="#5b5b5b" font-size="13.5" text-anchor="middle">1995</text><text x="350.1" y="515.4" fill="#5b5b5b" font-size="13.5" text-anchor="middle">2000</text><text x="435.2" y="515.4" fill="#5b5b5b" font-size="13.5" text-anchor="middle">2005</text><text x="520.3" y="515.4" fill="#5b5b5b" font-size="13.5" text-anchor="middle">2010</text><text x="605.4" y="515.4" fill="#5b5b5b" font-size="13.5" text-anchor="middle">2015</text></g><g class="VerticalAxis"><text x="89.84" y="496.9" fill="#5b5b5b" dy=".32em" font-size="13.5" text-anchor="end">0 TWh</text><text x="89.84" y="425.1" fill="#5b5b5b" dy=".32em" font-size="13.5" text-anchor="end">5,000 TWh</text><text x="89.84" y="353.2" fill="#5b5b5b" dy=".32em" font-size="13.5" text-anchor="end">10,000 TWh</text><text x="89.84" y="281.4" fill="#5b5b5b" dy=".32em" font-size="13.5" text-anchor="end">15,000 TWh</text><text x="89.84" y="209.5" fill="#5b5b5b" dy=".32em" font-size="13.5" text-anchor="end">20,000 TWh</text><text x="89.84" y="137.7" fill="#5b5b5b" dy=".32em" font-size="13.5" text-anchor="end">25,000 TWh</text></g><g class="AxisGridLines horizontalLines"><path stroke="#999" stroke-width="1" d="M94.84 496.9h629.64"/><path stroke="#ddd" stroke-dasharray="3,2" stroke-width="1" d="M94.84 425.1h629.64M94.84 353.2h629.64M94.84 281.4h629.64M94.84 209.5h629.64M94.84 137.7h629.64"/></g></g><g clip-path="url(#boundsClip-2937)"><g class="LineLabels" style="cursor:default"><g class="legendMark"><text x="728.5" y="150.9" fill="#00847e" font-size="13.5" font-weight="400"><tspan x="728.48" y="150.9">Renewables</tspan></text></g><g class="legendMark"><text x="728.5" y="230.7" fill="#6d3e91" font-size="13.5" font-weight="400"><tspan x="728.48" y="230.69">Nuclear</tspan></text></g><g class="legendMark"><text x="728.5" y="375.7" fill="#c05917" font-size="13.5" font-weight="400"><tspan x="728.48" y="375.69">Fossil fuels</tspan></text></g></g><g class="Areas"><path fill="#c05917" fill-opacity=".8" stroke-linecap="round" d="m94.8 406.6 17.1-2.2 17-4.6 17-3.5 17-6.5 17-2.3 17-1.6 17.1-1.2 17-.7 17-3.8 17-3.1 17-4.2 17.1-4.1 17-4.3 17-4.1 17-3.3 17-3 17-6.2 17.1-8.4 17-6.3 17-8 17-7.5 17-11.6 17-1.9 17.1 2.7 17-13.8 17-8.8 17-5.4 17-4.5 17-4 17.1.2 17-3.9 17-5.1 17-7.6 17 1.6 17 6.5 17.1-14.7 17-2.8v252.3H94.8" class="Fossil-fuels-area"/><path fill="#6d3e91" fill-opacity=".8" stroke-linecap="round" d="m94.8 385.2 17.1-3.8 17-6.5 17-5.7 17-7.4 17-3.1 17-2.9 17.1-1.4 17-1.8 17-4.4 17-4.4 17-5.4 17.1-3.9 17-4.9 17-5.5 17-3.2 17-4.1 17-6.7 17.1-7.7 17-8.1 17-8 17-7.9 17-10.8 17-1.7 17.1 3.2 17-14.8 17-7.1 17-2.9 17-4.7 17-4.7 17.1-.3 17-4.5 17-5.4 17-8.4 17 .1 17 7.8 17.1-16.3 17-1.2v37.9l-17 2.8-17.1 14.7-17-6.5-17-1.6-17 7.6-17 5.1-17 3.9-17.1-.2-17 4-17 4.5-17 5.4-17 8.8-17 13.8-17.1-2.7-17 1.9-17 11.6-17 7.5-17 8-17 6.3-17.1 8.4-17 6.2-17 3-17 3.3-17 4.1-17 4.3-17.1 4.1-17 4.2-17 3.1-17 3.8-17 .7-17.1 1.2-17 1.6-17 2.3-17 6.5-17 3.5-17 4.6-17.1 2.2" class="Nuclear-area"/><path fill="#00847e" fill-opacity=".8" stroke-linecap="round" d="m94.8 355.6 17.1-4.2 17-7.1 17-6.6 17-7.4 17-4.3 17-3.8 17.1-1.5 17-3.8 17-4.6 17-6.5 17-5.9 17.1-4.7 17-5.4 17-5.9 17-4.1 17-3.2 17-7.8 17.1-8 17-11.4 17-10.1 17-10.1 17-12.4 17-5.3 17.1 2 17-19.4 17-10 17-7.5 17-9.2 17-8.5 17.1-3.5 17-9.3 17-10.9 17-14.4 17-4.9 17 1 17.1-22.4 17-9.5v121.7l-17 1.2-17.1 16.3-17-7.8-17-.1-17 8.4-17 5.4-17 4.5-17.1.3-17 4.7-17 4.7-17 2.9-17 7.1-17 14.8-17.1-3.2-17 1.7-17 10.8-17 7.9-17 8-17 8.1-17.1 7.7-17 6.7-17 4.1-17 3.2-17 5.5-17 4.9-17.1 3.9-17 5.4-17 4.4-17 4.4-17 1.8-17.1 1.4-17 2.9-17 3.1-17 7.4-17 5.7-17 6.5-17.1 3.8" class="Renewables-area"/><path fill="none" stroke="#A14A13" stroke-linecap="round" stroke-opacity=".7" stroke-width=".5" d="m94.8 406.6 17.1-2.2 17-4.6 17-3.5 17-6.5 17-2.3 17-1.6 17.1-1.2 17-.7 17-3.8 17-3.1 17-4.2 17.1-4.1 17-4.3 17-4.1 17-3.3 17-3 17-6.2 17.1-8.4 17-6.3 17-8 17-7.5 17-11.6 17-1.9 17.1 2.7 17-13.8 17-8.8 17-5.4 17-4.5 17-4 17.1.2 17-3.9 17-5.1 17-7.6 17 1.6 17 6.5 17.1-14.7 17-2.8" class="Fossil-fuels-border"/><path fill="none" stroke="#5B3479" stroke-linecap="round" stroke-opacity=".7" stroke-width=".5" d="m94.8 385.2 17.1-3.8 17-6.5 17-5.7 17-7.4 17-3.1 17-2.9 17.1-1.4 17-1.8 17-4.4 17-4.4 17-5.4 17.1-3.9 17-4.9 17-5.5 17-3.2 17-4.1 17-6.7 17.1-7.7 17-8.1 17-8 17-7.9 17-10.8 17-1.7 17.1 3.2 17-14.8 17-7.1 17-2.9 17-4.7 17-4.7 17.1-.3 17-4.5 17-5.4 17-8.4 17 .1 17 7.8 17.1-16.3 17-1.2" class="Nuclear-border"/><path fill="none" stroke="#006E69" stroke-linecap="round" stroke-opacity=".7" stroke-width=".5" d="m94.8 355.6 17.1-4.2 17-7.1 17-6.6 17-7.4 17-4.3 17-3.8 17.1-1.5 17-3.8 17-4.6 17-6.5 17-5.9 17.1-4.7 17-5.4 17-5.9 17-4.1 17-3.2 17-7.8 17.1-8 17-11.4 17-10.1 17-10.1 17-12.4 17-5.3 17.1 2 17-19.4 17-10 17-7.5 17-9.2 17-8.5 17.1-3.5 17-9.3 17-10.9 17-14.4 17-4.9 17 1 17.1-22.4 17-9.5" class="Renewables-border"/></g></g></g></g><g class="SourcesFooter" style="fill:#5b5b5b"><text x="16" y="546.5" style="font-size:13.5px;line-height:1.2"><tspan x="16" y="546.5"><tspan style="font-weight:700">Data source:</tspan> Ember - Yearly Electricity Data (2023); Ember - European Electricity Review (2022); Energy Institute - Statistical Review</tspan><tspan x="16" y="562.7">of World Energy (2023)</tspan></text><text x="16" y="580.9" font-size="13.5"><tspan x="16" y="580.89"><a href="https://ourworldindata.org/energy" style="fill:#5b5b5b;text-decoration:underline" target="_blank">OurWorldInData.org/energy</a> | <a href="https://creativecommons.org/licenses/by/4.0/" style="fill:#5b5b5b;text-decoration:underline" target="_blank">CC BY</a></tspan></text></g></svg>